<?xml version="1.0" encoding="UTF-8" standalone="no"?>
<svg
    width="565.68542"
    height="565.68542"
    viewVox="0 0 565.68542 565.68542"
    version="1.1"
    id="nv"
    xmlns="http://www.w3.org/2000/svg"
    xmlns:svg="http://www.w3.org/2000/svg"
>
  <g
      id="logo"
      transform="translate(82.842712,82.842712)"
  >
    <path
        id="n"
        style="fill:#ffaa00;fill-opacity:1"
        d="M -82.842712,200 C 11.438189,294.2809 105.7191,388.56181 200,482.84271 c 28.28427,-28.28427 56.56854,-56.56854 84.85281,-84.85281 -53.875,-53.875 -107.75,-107.75 -161.625,-161.625 91.58736,16.16264 183.17473,32.32527 274.76209,48.48791 C 426.27417,256.56854 454.55844,228.28427 482.84271,200 388.56181,105.7191 294.2809,11.438189 200,-82.842712 171.71573,-54.558441 143.43146,-26.27417 115.14719,2.0101013 169.02219,55.885102 222.89719,109.7601 276.77219,163.6351 185.18483,147.47246 93.597462,131.30983 2.0101013,115.14719 -26.27417,143.43146 -54.558441,171.71573 -82.842712,200 Z"
    />
    <path
        id="v"
        style="fill:#0077ff;fill-opacity:1"
        d="M -82.842712,200 C 77.434822,228.28427 237.71237,256.56854 397.9899,284.85281 426.27417,256.56854 454.55844,228.28427 482.84271,200 388.56181,105.7191 294.2809,11.438189 200,-82.842712 171.71573,-54.558441 143.43146,-26.27417 115.14719,2.0101013 209.42809,96.291003 303.709,190.57191 397.9899,284.85281 426.27417,256.56854 454.55844,228.28427 482.84271,200 322.56518,171.71573 162.28763,143.43146 2.0101013,115.14719 -26.27417,143.43146 -54.558441,171.71573 -82.842712,200 Z"
    />
  </g>
</svg>
